name ./resultDataOpenSim/trcMotMarkerGrf/sub10/grf-13-02.mot
datacolumns 19
datarows 22
range 0.93600000 1.02000000
endheader

                time	     ground_force_vx	     ground_force_vy	     ground_force_vz	     ground_force_px	     ground_force_py	     ground_force_pz	   l_ground_force_vx	   l_ground_force_vy	   l_ground_force_vz	   l_ground_force_px	   l_ground_force_py	   l_ground_force_pz	     ground_torque_x	     ground_torque_y	     ground_torque_z	   l_ground_torque_x	   l_ground_torque_y	   l_ground_torque_z	
          0.93600000	          0.00000000	          0.00000000	          0.00000000	          0.00000000	          0.00000000	          0.00000000	          9.53817669	        453.14695257	         20.85628893	         -0.02505118	         -0.04999900	         -0.11023986	          0.00000000	          0.00000000	          0.00000000	          0.00000000	         -1.38857155	          0.00000000	
          0.94000000	          0.00000000	          0.00000000	          0.00000000	          0.00000000	          0.00000000	          0.00000000	         11.66717359	        451.28917783	         20.49921122	         -0.02447962	         -0.04999900	         -0.10998277	          0.00000000	          0.00000000	          0.00000000	          0.00000000	         -1.44429468	          0.00000000	
          0.94400000	          0.00000000	          0.00000000	          0.00000000	          0.00000000	          0.00000000	          0.00000000	         14.00473189	        450.64092045	         20.05878057	         -0.02360788	         -0.04999900	         -0.10950713	          0.00000000	          0.00000000	          0.00000000	          0.00000000	         -1.52104840	          0.00000000	
          0.94800000	          0.00000000	          0.00000000	          0.00000000	          0.00000000	          0.00000000	          0.00000000	         16.52397689	        451.29570995	         19.52010644	         -0.02245800	         -0.04999952	         -0.10883236	          0.00000000	          0.00000000	          0.00000000	          0.00000000	         -1.61953476	          0.00000000	
          0.95200000	          0.00000000	          0.00000000	          0.00000000	          0.00000000	          0.00000000	          0.00000000	         19.18245612	        453.28754371	         18.88094962	         -0.02110090	         -0.05000000	         -0.10800590	          0.00000000	          0.00000000	          0.00000000	          0.00000000	         -1.74064773	          0.00000000	
          0.95600000	          0.00000000	          0.00000000	          0.00000000	          0.00000000	          0.00000000	          0.00000000	         21.97546001	        456.57963956	         18.15274644	         -0.01963626	         -0.05000000	         -0.10709739	          0.00000000	          0.00000000	          0.00000000	          0.00000000	         -1.88476963	          0.00000000	
          0.96000000	          0.00000000	          0.00000000	          0.00000000	          0.00000000	          0.00000000	          0.00000000	         24.96150308	        461.07283438	         17.35484076	         -0.01817912	         -0.05000000	         -0.10619638	          0.00000000	          0.00000000	          0.00000000	          0.00000000	         -2.05126359	          0.00000000	
          0.96400000	          0.00000000	          0.00000000	          0.00000000	          0.00000000	          0.00000000	          0.00000000	         28.23544292	        466.64959308	         16.51121484	         -0.01685370	         -0.05000000	         -0.10540713	          0.00000000	          0.00000000	          0.00000000	          0.00000000	         -2.23828930	          0.00000000	
          0.96800000	          0.00000000	          0.00000000	          0.00000000	          0.00000000	          0.00000000	          0.00000000	         31.87497554	        473.23500907	         15.65393357	         -0.01578019	         -0.05000032	         -0.10481890	          0.00000000	          0.00000000	          0.00000000	          0.00000000	         -2.44284208	          0.00000000	
          0.97200000	          0.00000000	          0.00000000	          0.00000000	          0.00000000	          0.00000000	          0.00000000	         35.91696615	        480.82995791	         14.82904742	         -0.01500973	         -0.05000100	         -0.10444890	          0.00000000	          0.00000000	          0.00000000	          0.00000000	         -2.66096905	          0.00000000	
          0.97600000	          0.00000000	          0.00000000	          0.00000000	          0.00000000	          0.00000000	          0.00000000	         40.36522312	        489.49742787	         14.09872756	         -0.01448062	         -0.05000124	         -0.10423075	          0.00000000	          0.00000000	          0.00000000	          0.00000000	         -2.88824541	          0.00000000	
          0.98000000	          0.00000000	          0.00000000	          0.00000000	          0.00000000	          0.00000000	          0.00000000	         45.18379529	        499.32233338	         13.53293242	         -0.01407524	         -0.05000200	         -0.10406982	          0.00000000	          0.00000000	          0.00000000	          0.00000000	         -3.12051269	          0.00000000	
          0.98400000	          0.00000000	          0.00000000	          0.00000000	          0.00000000	          0.00000000	          0.00000000	         50.27307823	        510.37383347	         13.18498000	         -0.01367306	         -0.05000200	         -0.10388190	          0.00000000	          0.00000000	          0.00000000	          0.00000000	         -3.35461503	          0.00000000	
          0.98800000	          0.00000000	          0.00000000	          0.00000000	          0.00000000	          0.00000000	          0.00000000	         55.47411108	        522.69629201	         13.06668488	         -0.01321285	         -0.05000200	         -0.10363088	          0.00000000	          0.00000000	          0.00000000	          0.00000000	         -3.58873015	          0.00000000	
          0.99200000	          0.00000000	          0.00000000	          0.00000000	          0.00000000	          0.00000000	          0.00000000	         60.61486769	        536.31971944	         13.15327696	         -0.01270228	         -0.05000200	         -0.10331282	          0.00000000	          0.00000000	          0.00000000	          0.00000000	         -3.82207521	          0.00000000	
          0.99600000	          0.00000000	          0.00000000	          0.00000000	          0.00000000	          0.00000000	          0.00000000	         65.55526902	        551.24027432	         13.41520403	         -0.01216879	         -0.05000204	         -0.10292104	          0.00000000	          0.00000000	          0.00000000	          0.00000000	         -4.05415456	          0.00000000	
          1.00000000	          0.00000000	          0.00000000	          0.00000000	          0.00000000	          0.00000000	          0.00000000	         70.20755771	        567.37157957	         13.83248758	         -0.01163794	         -0.05000300	         -0.10245174	          0.00000000	          0.00000000	          0.00000000	          0.00000000	         -4.28401364	          0.00000000	
          1.00400000	          0.00000000	          0.00000000	          0.00000000	          0.00000000	          0.00000000	          0.00000000	         74.54600076	        584.53108103	         14.37315482	         -0.01110874	         -0.05000300	         -0.10192377	          0.00000000	          0.00000000	          0.00000000	          0.00000000	         -4.50994564	          0.00000000	
          1.00800000	          0.00000000	          0.00000000	          0.00000000	          0.00000000	          0.00000000	          0.00000000	         78.60415446	        602.48661135	         14.98088866	         -0.01058477	         -0.05000300	         -0.10139620	          0.00000000	          0.00000000	          0.00000000	          0.00000000	         -4.72977918	          0.00000000	
          1.01200000	          0.00000000	          0.00000000	          0.00000000	          0.00000000	          0.00000000	          0.00000000	         82.46953534	        621.00491744	         15.59475883	         -0.01003608	         -0.05000300	         -0.10087646	          0.00000000	          0.00000000	          0.00000000	          0.00000000	         -4.94152429	          0.00000000	
          1.01600000	          0.00000000	          0.00000000	          0.00000000	          0.00000000	          0.00000000	          0.00000000	         86.28670714	        639.83907222	         16.15950193	         -0.00939945	         -0.05000300	         -0.10033580	          0.00000000	          0.00000000	          0.00000000	          0.00000000	         -5.14404604	          0.00000000	
          1.02000000	          0.00000000	          0.00000000	          0.00000000	          0.00000000	          0.00000000	          0.00000000	         90.23458382	        658.69032588	         16.61604291	         -0.00865305	         -0.05000300	         -0.09976163	          0.00000000	          0.00000000	          0.00000000	          0.00000000	         -5.33751958	          0.00000000	
